# xmcd
#
# Track frame offsets: 
#        150
#        16172
#        31822
#        47658
#        65686
#        83870
#        97065
#        120400
#        136625
#        148572
#        165713
#        178312
#        199353
#        214388
#        240945
#
# Disc length: 3921 seconds
#
# Revision: 1
# Processed by: cddbd v1.5.2PL0 Copyright (c) Steve Scherf et al.
# Submitted via: ExactAudioCopy v1.0b3
#
DISCID=cf0f4f0f
DTITLE=Ricky Fante - Rewind
DYEAR=2004
DGENRE=Soul
TTITLE0=Let You Go
TTITLE1=It Ain't Easy (On Your Own)
TTITLE2=Smile
TTITLE3=Why
TTITLE4=Are You Lonely Too?
TTITLE5=Love Doesn't Live Here No More
TTITLE6=It's Over Now
TTITLE7=He Don't Love You
TTITLE8=My Song
TTITLE9=If It's Love
TTITLE10=Oh Yeah
TTITLE11=A Woman's Touch
TTITLE12=It Ain't Easy (On Your Own) [Mark Batson Remix] (feat. Issac 
TTITLE12=Hayes)
TTITLE13=All I Wanted
TTITLE14=It Ain't Easy (Video)
EXTD=YEAR: 2004
EXTT0=
EXTT1=
EXTT2=
EXTT3=
EXTT4=
EXTT5=
EXTT6=
EXTT7=
EXTT8=
EXTT9=
EXTT10=
EXTT11=
EXTT12=
EXTT13=
EXTT14=
PLAYORDER=
